<svg width="76" height="76" viewBox="0 0 76 76" fill="none" xmlns="http://www.w3.org/2000/svg">
<g filter="url(#filter0_dd_2649_28321)">
<g clip-path="url(#clip0_2649_28321)">
<rect x="14" y="8" width="48" height="48" rx="24" fill="white"/>
<path d="M38 8C33.2533 8 28.6131 9.40758 24.6663 12.0447C20.7195 14.6819 17.6434 18.4302 15.8269 22.8156C14.0104 27.201 13.5351 32.0266 14.4612 36.6822C15.3872 41.3377 17.673 45.6141 21.0294 48.9706C24.3859 52.327 28.6623 54.6128 33.3178 55.5389C37.9734 56.4649 42.799 55.9896 47.1844 54.1731C51.5698 52.3566 55.3181 49.2805 57.9553 45.3337C60.5924 41.3869 62 36.7468 62 32C61.9931 25.6369 59.4624 19.5364 54.963 15.037C50.4636 10.5377 44.3631 8.00688 38 8V8ZM38 52C34.0444 52 30.1776 50.827 26.8886 48.6294C23.5996 46.4318 21.0362 43.3082 19.5224 39.6537C18.0087 35.9992 17.6126 31.9778 18.3843 28.0982C19.156 24.2186 21.0608 20.6549 23.8579 17.8579C26.6549 15.0608 30.2186 13.156 34.0982 12.3843C37.9778 11.6126 41.9992 12.0087 45.6537 13.5224C49.3082 15.0362 52.4318 17.5996 54.6294 20.8886C56.827 24.1776 58 28.0444 58 32C57.9942 37.3025 55.8852 42.3862 52.1357 46.1357C48.3862 49.8852 43.3026 51.9942 38 52V52Z" fill="#374957"/>
<path d="M39.4342 18.1257C38.2809 17.9155 37.0955 17.9614 35.9618 18.2601C34.8282 18.5589 33.7741 19.1031 32.874 19.8543C31.974 20.6055 31.2501 21.5453 30.7535 22.6073C30.2569 23.6692 29.9997 24.8273 30.0002 25.9997C30.0002 26.5301 30.211 27.0388 30.586 27.4139C30.9611 27.789 31.4698 27.9997 32.0002 27.9997C32.5307 27.9997 33.0394 27.789 33.4145 27.4139C33.7895 27.0388 34.0002 26.5301 34.0002 25.9997C33.9997 25.4112 34.1291 24.8299 34.379 24.2972C34.629 23.7645 34.9934 23.2934 35.4463 22.9177C35.8992 22.542 36.4294 22.2708 36.9991 22.1236C37.5688 21.9763 38.164 21.9565 38.7422 22.0657C39.5323 22.219 40.2587 22.6044 40.8287 23.1726C41.3987 23.7409 41.7864 24.4661 41.9422 25.2557C42.0996 26.0845 41.9909 26.9418 41.6317 27.7051C41.2725 28.4685 40.6812 29.0987 39.9422 29.5057C38.7186 30.2146 37.7074 31.2387 37.0141 32.4713C36.3208 33.7038 35.9707 35.0998 36.0002 36.5137V37.9997C36.0002 38.5301 36.2109 39.0388 36.586 39.4139C36.9611 39.789 37.4698 39.9997 38.0002 39.9997C38.5307 39.9997 39.0394 39.789 39.4144 39.4139C39.7895 39.0388 40.0002 38.5301 40.0002 37.9997V36.5137C39.9751 35.8177 40.1338 35.1274 40.4604 34.5122C40.7869 33.8971 41.2697 33.3789 41.8602 33.0097C43.3092 32.2138 44.4761 30.9886 45.2004 29.5025C45.9246 28.0164 46.1707 26.3424 45.9048 24.7107C45.6388 23.079 44.8739 21.5698 43.7152 20.3907C42.5565 19.2115 41.061 18.4202 39.4342 18.1257V18.1257Z" fill="#374957"/>
<path d="M40.0003 43.999C40.0003 42.8945 39.1048 41.999 38.0003 41.999C36.8957 41.999 36.0002 42.8945 36.0002 43.999C36.0002 45.1036 36.8957 45.999 38.0003 45.999C39.1048 45.999 40.0003 45.1036 40.0003 43.999Z" fill="#374957"/>
</g>
</g>
<defs>
<filter id="filter0_dd_2649_28321" x="0" y="0" width="76" height="76" filterUnits="userSpaceOnUse" color-interpolation-filters="sRGB">
<feFlood flood-opacity="0" result="BackgroundImageFix"/>
<feColorMatrix in="SourceAlpha" type="matrix" values="0 0 0 0 0 0 0 0 0 0 0 0 0 0 0 0 0 0 127 0" result="hardAlpha"/>
<feOffset dy="2"/>
<feGaussianBlur stdDeviation="1.5"/>
<feColorMatrix type="matrix" values="0 0 0 0 0 0 0 0 0 0 0 0 0 0 0 0 0 0 0.3 0"/>
<feBlend mode="normal" in2="BackgroundImageFix" result="effect1_dropShadow_2649_28321"/>
<feColorMatrix in="SourceAlpha" type="matrix" values="0 0 0 0 0 0 0 0 0 0 0 0 0 0 0 0 0 0 127 0" result="hardAlpha"/>
<feMorphology radius="4" operator="dilate" in="SourceAlpha" result="effect2_dropShadow_2649_28321"/>
<feOffset dy="6"/>
<feGaussianBlur stdDeviation="5"/>
<feColorMatrix type="matrix" values="0 0 0 0 0 0 0 0 0 0 0 0 0 0 0 0 0 0 0.15 0"/>
<feBlend mode="normal" in2="effect1_dropShadow_2649_28321" result="effect2_dropShadow_2649_28321"/>
<feBlend mode="normal" in="SourceGraphic" in2="effect2_dropShadow_2649_28321" result="shape"/>
</filter>
<clipPath id="clip0_2649_28321">
<rect x="14" y="8" width="48" height="48" rx="24" fill="white"/>
</clipPath>
</defs>
</svg>
